<?xml version="1.0" encoding="utf-8"?>
<!-- Generator: Adobe Illustrator 19.0.0, SVG Export Plug-In . SVG Version: 6.00 Build 0)  -->
<svg version="1.1" id="Layer_1" xmlns="http://www.w3.org/2000/svg" xmlns:xlink="http://www.w3.org/1999/xlink" x="0px" y="0px"
	 viewBox="0 0 98.7 102" style="enable-background:new 0 0 98.7 102;" xml:space="preserve">
<style type="text/css">
	.st0{fill:#3A338A;}
</style>
<path id="XMLID_7_" class="st0" d="M54.5,60c-2.1-0.9-4.3-1.4-6.4-1.5c-1.5,0-4-0.2-7.5-0.4c-3.5-0.2-6.3-0.4-8.3-0.4
	c-1.9,0-3.7-0.1-5.5-0.2c-1.8-0.1-3.3-0.3-4.7-0.7c-1.4-0.3-2.6-0.9-3.5-1.9c-1-0.9-1.4-2.2-1.4-4c0-1.7,0.6-3,1.7-4
	c1.1-1,2.2-1.7,3.3-2h8.3c6.4,0,12.1-2.1,16.9-6.3c4.8-4.2,7.3-9.3,7.3-15.4c0-2.3-0.4-4.7-1.2-7.1c-0.8-2.4-2.1-4.6-3.8-6.6V9h16
	V2.2H42.1c-2.1-0.7-4.2-1.2-6.2-1.6S31.7,0,29.6,0C22.2,0,16,2.1,11.2,6.3C6.4,10.5,4,15.9,4,22.4c0,4.3,1.2,8.2,3.7,11.4
	c2.4,3.3,5.9,6,10.3,8.1V43c-3.5,1.5-6.1,3.3-7.8,5.4c-1.7,2.1-2.6,4.3-2.6,6.8c0,2,0.4,3.6,1.1,4.9c0.7,1.3,1.7,2.5,2.9,3.5
	c1.1,0.8,2.3,1.6,3.8,2.2c1.5,0.6,2.9,1.2,4.3,1.6v1C13.9,68.5,9.2,70,5.5,72.8C1.8,75.5,0,79.3,0,84.1c0,5.9,2.6,10.3,7.7,13.4
	c5.1,3.1,12.8,4.6,23.1,4.6c6.3,0,11.6-0.6,15.9-1.8c4.3-1.2,7.9-2.9,11-5.1c2.9-2.1,5.1-4.7,6.5-7.6c1.4-2.9,2.1-6,2.1-9.3
	s-0.5-6.1-1.6-8.3c-1.1-2.2-2.5-4.2-4.3-6C58.6,62.2,56.6,60.9,54.5,60z M38.5,35.2c-2.1,3.2-5.2,4.9-9.1,4.9
	c-3.5,0-6.4-1.6-8.7-4.9c-2.2-3.3-3.3-7.5-3.3-12.7c0-2.3,0.2-4.5,0.6-6.7c0.4-2.2,1-4,2-5.6c1-1.7,2.2-3,3.8-3.9
	C25.2,5.4,27.1,5,29.2,5c3.9,0,7,1.6,9.2,4.9c2.2,3.2,3.3,7.6,3.3,13.1C41.7,27.8,40.6,31.9,38.5,35.2z M49.1,92.8
	c-3.9,2.6-9.2,4-16,4c-3.9,0-7.2-0.4-9.9-1.2c-2.7-0.8-4.9-1.8-6.5-3c-1.7-1.3-2.9-2.6-3.6-4.1c-0.7-1.5-1-3.1-1-4.7
	c0-3.6,1-6.6,3.1-8.9c2.1-2.3,5.6-4,10.6-4.9c5.3,0,9.9,0.1,13.9,0.4c4,0.2,6.6,0.4,7.9,0.6c2.4,0.6,4.2,1.7,5.4,3.4
	c1.2,1.7,1.8,3.8,1.8,6.4C54.9,86.1,53,90.1,49.1,92.8z"/>
<path id="XMLID_5_" class="st0" d="M79.8,25.6v13.9h5.3V25.6h13.6v-5.3H85.1V6.3h-5.3v13.9H66.3v5.3L79.8,25.6L79.8,25.6z"/>
</svg>
